<svg width="59" height="51" viewBox="0 0 59 51" fill="none" xmlns="http://www.w3.org/2000/svg">
<path d="M51.0098 0.580078H58.7998V3.48008H51.7398C51.7398 3.48008 51.0998 2.56008 51.0098 0.580078Z" fill="#FABD00"/>
<path d="M52.1191 4.01001H58.7991V9.68001H53.3791C53.3791 9.68001 54.1991 6.58001 52.1191 4.01001Z" fill="#FABD00"/>
<path d="M53.2806 10.1599H58.8006V16.9199H48.8906C48.8906 16.9199 52.4106 14.9499 53.2806 10.1599Z" fill="#FABD00"/>
<path d="M51.7793 17.4199H58.7993V23.3199H57.9793C57.9793 23.3199 57.2493 22.3499 56.9593 22.2999C56.6093 22.2399 56.4793 23.3199 56.4793 23.3199H51.7893V17.4199H51.7793Z" fill="#FABD00"/>
<path d="M51.2992 17.4199H48.4192C48.4192 17.4199 47.5692 18.0499 47.2792 20.6599C47.2792 20.6599 47.0892 21.7699 46.9392 22.0599C46.7892 22.3499 46.4992 23.2699 46.4592 23.2699C46.4192 23.2699 51.3592 23.3199 51.3592 23.3199" fill="#FABD00"/>
<path d="M46.1705 23.8101H56.2605L54.7405 27.2501C54.7405 27.2501 54.1105 28.5601 53.8205 30.3501H42.7305V25.9501C42.7305 25.9501 44.7205 25.5101 46.1705 23.8201V23.8101Z" fill="#FABD00"/>
<path d="M42.2495 26.0801V30.3401H38.1895C38.1895 30.3401 40.0695 27.7701 40.4595 27.5301C40.4595 27.5301 41.9095 26.0301 42.2495 26.0801Z" fill="#FABD00"/>
<path d="M53.7709 30.9199H52.2109V36.9599H55.2709C55.2709 36.9599 53.9609 33.6799 53.7709 30.9199Z" fill="#FABD00"/>
<path d="M51.7002 30.9201V36.9701H32.9102V30.9201C32.9102 30.9201 33.1502 30.9701 33.2502 30.8701C33.3502 30.7701 34.1502 32.3301 35.2302 32.2701C36.2502 32.2201 37.2202 31.4901 37.7002 30.8701" fill="#FABD00"/>
<path d="M32.4195 30.9199V36.9699H26.9395V33.7299C26.9395 33.7299 29.1695 31.7499 29.6795 30.9199H32.4195Z" fill="#FABD00"/>
<path d="M30.4902 30.4399H32.9102C32.9102 30.4399 32.7202 30.1299 31.7002 30.1399C30.6802 30.1499 30.4902 30.4399 30.4902 30.4399Z" fill="#FABD00"/>
<path d="M42.2995 37.47H26.9395V43.29H42.2995V37.47Z" fill="#FABD00"/>
<path d="M55.5108 37.46C55.4108 37.85 58.4108 43.27 58.4108 43.27H42.8008V37.47H55.5108V37.46Z" fill="#FABD00"/>
<path d="M58.8506 43.8H52.1406V50.53H58.8006L58.8506 43.8Z" fill="#FABD00"/>
<path d="M51.6207 43.8H33.2207V49.62L34.9707 50.53H51.6207V43.8Z" fill="#FABD00"/>
<path d="M32.7305 43.8H13.7305V47.37H13.9905C13.9905 47.37 14.0205 46.94 15.4605 47.52C15.4605 47.52 15.4705 47.52 15.4805 47.52C15.4805 47.52 14.7505 46.65 16.4005 46.89C16.5605 46.91 16.7805 46.94 16.9805 46.99L14.5605 45.15C14.5605 45.15 13.8305 44.23 15.5305 44.76C15.5305 44.76 19.3105 45.78 20.2705 46.21C20.9805 46.53 24.3405 48.19 24.7705 48.15C24.7705 48.15 24.5805 47.71 25.7405 47.86C26.9005 48.01 27.8905 48.15 27.8905 48.15L27.5805 47.42C27.5805 47.42 27.4305 46.84 28.4505 47.23C29.4705 47.62 32.2705 48.88 32.7105 49.26L32.7305 43.79V43.8Z" fill="#FABD00"/>
<path d="M13.33 43.8H0V50.59H3.86C3.86 50.59 5.22 49.08 8.39 49.27C8.39 49.27 8.61 49.32 8.56 49.08C8.56 49.08 8.08 48.26 7.98 48.11C7.88 47.96 7.54 47.43 8.37 47.19L8.81 47.04L7.6 46.12C7.6 46.12 6.97 45.39 7.89 45.39C7.89 45.39 10.65 45.97 11.18 46.31L13.31 47.08L13.33 43.79V43.8Z" fill="#FABD00"/>
<path d="M4.92969 50.5201C4.92969 50.5201 5.31969 49.7901 8.26969 49.7501C8.26969 49.7501 10.1097 49.9001 8.36969 47.7701C8.36969 47.7701 8.17969 47.7701 9.28969 47.4801C10.3997 47.1901 8.26969 46.0301 8.26969 46.0301C8.26969 46.0301 8.21969 45.9301 8.36969 45.9801C8.36969 45.9801 11.3697 46.9001 12.0997 47.1401C12.8297 47.3801 14.2297 48.1101 14.2297 48.1101C14.2297 48.1101 14.5197 48.2501 14.6597 47.8301C14.6597 47.8301 14.6597 47.8301 14.6597 47.8201L16.0197 48.2101C16.0197 48.2101 16.7497 48.4001 16.4597 47.7301L16.1697 47.4401C16.1697 47.4401 17.4797 47.5901 17.6697 47.5401C17.6697 47.5401 18.2497 47.5401 17.9097 47.0101C17.9097 47.0101 15.6397 45.3601 15.4397 45.2701C15.2397 45.1801 18.0097 45.9401 18.0097 45.9401C18.0097 45.9401 22.2597 47.5401 23.0797 48.0301C23.8997 48.5201 24.6297 48.7601 24.8697 48.7601C25.1097 48.7601 26.0797 49.0001 25.7397 48.4201C25.7397 48.4201 25.9797 48.3201 27.7197 48.6601C29.4597 49.0001 28.2497 47.7401 28.2497 47.7401C28.2497 47.7401 28.5897 47.6901 29.9397 48.4201C31.2897 49.1501 33.9297 50.5601 33.9297 50.5601H4.92969" fill="#55AC82"/>
<path d="M57.1193 23.1C57.1193 23.1 57.0393 23.08 57.0293 23.12C56.8893 23.52 56.2793 25.12 56.1393 25.31C56.0493 25.43 54.7893 28.53 54.6893 28.78C54.6893 28.78 54.6893 28.8 54.6793 28.81C54.5793 29.01 53.4393 31.48 56.0093 37.45C56.0093 37.45 56.0093 37.46 56.0093 37.47L58.1593 41.77C58.3093 42.03 58.8093 43.23 58.7893 42.93L57.1093 23.1H57.1193Z" fill="#3D348B"/>
<path d="M58.7996 42.9301V24.9301C58.7996 24.9301 58.3596 24.2901 58.1196 24.0901C57.8796 23.8901 57.0996 23.0801 57.0996 23.0801" fill="#3D348B"/>
<path d="M33.5492 30.3401C36.1092 35.3901 39.5592 25.7501 42.4392 25.4501C47.7792 24.2201 45.6192 20.4001 48.2292 16.7901C49.8292 15.1401 50.2092 15.8101 51.7792 12.9401C53.0392 9.30008 54.0892 7.64008 51.3392 3.82008C51.3392 3.82008 50.8792 3.14008 50.6992 2.03008C50.3492 -0.0399218 50.8592 0.820078 48.7792 0.580078V13.1101C46.7392 13.4501 37.2792 13.2001 37.0392 13.4001V17.2001C37.0392 17.2001 37.1592 17.9001 36.3892 17.8001C35.6192 17.7001 26.9492 17.8001 26.9492 17.8001V33.0101C28.0892 32.4201 28.7792 30.3901 30.6292 29.8001C30.6292 29.8001 32.4592 29.1601 33.5492 30.2801" fill="#E3591F"/>
<path d="M22.0698 11.8101H4.25977V43.2701H22.0698V11.8101Z" fill="#3D348B"/>
<path d="M7.64016 11.8101H7.16016V43.2701H7.64016V11.8101Z" fill="#55AC82"/>
<path d="M4.26 11.34H22.07C22.07 11.34 21.59 5.22998 13.16 4.90998C13.16 4.90998 5.85 4.81998 4.25 11.34H4.26Z" fill="#FABD00"/>
<path d="M10.9297 4.6399V0.649902H15.3797V1.4999C15.3797 1.4999 14.5697 1.2199 14.2097 1.9099C14.0597 2.1999 14.0397 2.5399 14.1797 2.8399C14.3197 3.1399 14.6297 3.4099 15.3297 3.1899V4.6399C15.3297 4.6399 13.8797 4.1099 10.9297 4.6399Z" fill="#55AC82"/>
<path d="M22.6895 5.46998C22.6895 5.46998 25.6795 5.75998 31.4695 2.02998C31.4695 2.02998 41.2295 -3.53002 44.9595 3.74998C45.1695 4.16998 45.2895 4.62998 45.2895 5.09998C45.2895 6.18998 44.9295 8.08998 42.5295 9.42998C42.5295 9.42998 36.9895 13.88 27.4695 8.11998C27.4695 8.11998 23.7495 5.55998 22.6895 5.45998V5.46998Z" fill="#3D348B"/>
<path d="M32.4592 5.74008C32.4592 5.74008 34.1192 3.40008 37.1492 3.49008C40.1792 3.58008 40.9992 5.64008 40.9992 5.64008C40.9992 5.64008 40.4992 7.32008 36.9592 7.48008C34.4892 7.59008 33.5092 6.55008 32.4492 5.74008H32.4592Z" fill="#FABD00"/>
<path d="M36.8592 7.55008C36.6392 7.55008 36.1092 7.53008 35.4392 7.39008C34.6292 7.21008 33.4592 6.81008 32.4692 5.90008C32.3792 5.81008 32.3692 5.66008 32.4592 5.57008C32.8992 5.10008 34.5092 3.55008 36.8892 3.44008C37.8592 3.40008 38.7792 3.64008 39.6192 4.16008C40.3092 4.59008 40.7792 5.11008 40.9992 5.38008C41.1292 5.54008 41.1292 5.77008 41.0092 5.94008C40.8192 6.20008 40.4592 6.57008 39.8292 6.90008C39.0692 7.29008 38.1092 7.51008 36.9792 7.56008C36.9792 7.56008 36.9392 7.56008 36.8692 7.56008L36.8592 7.55008ZM32.5592 5.78008C33.5292 6.67008 34.6692 7.07008 35.4592 7.24008C36.3192 7.43008 36.9492 7.40008 36.9592 7.40008C38.0692 7.36008 38.9992 7.14008 39.7492 6.76008C40.3492 6.45008 40.6992 6.09008 40.8692 5.85008C40.9492 5.74008 40.9492 5.58008 40.8692 5.47008C40.3892 4.87008 39.0492 3.49008 36.8892 3.58008C34.5692 3.69008 32.9892 5.20008 32.5692 5.66008C32.5392 5.69008 32.5392 5.75008 32.5692 5.78008H32.5592Z" fill="white"/>
<path d="M40.5086 3.69987C40.5086 3.69987 40.4686 3.69987 40.4486 3.66987C40.4186 3.63987 40.4286 3.58987 40.4486 3.56987L41.6586 2.50987C41.6586 2.50987 41.7386 2.48987 41.7586 2.50987C41.7886 2.53987 41.7786 2.58987 41.7586 2.60987L40.5486 3.66987C40.5486 3.66987 40.5186 3.68987 40.4986 3.68987L40.5086 3.69987Z" fill="white"/>
<path d="M39.2595 3.19002C39.2595 3.19002 39.2395 3.19002 39.2295 3.19002C39.1895 3.17002 39.1795 3.13002 39.1995 3.09002L40.0595 1.47002C40.0595 1.47002 40.1195 1.42002 40.1595 1.44002C40.1995 1.46002 40.2095 1.50002 40.1895 1.54002L39.3295 3.16003C39.3295 3.16003 39.2895 3.20002 39.2595 3.20002V3.19002Z" fill="white"/>
<path d="M37.2887 2.8001C37.2887 2.8001 37.2887 2.8001 37.2787 2.8001C37.2387 2.8001 37.2087 2.7501 37.2187 2.7101L37.5587 0.910099C37.5587 0.910099 37.6087 0.840099 37.6487 0.850099C37.6887 0.850099 37.7187 0.900099 37.7087 0.940099L37.3687 2.7401C37.3687 2.7401 37.3287 2.8001 37.2987 2.8001H37.2887Z" fill="white"/>
<path d="M35.7392 2.90004C35.7392 2.90004 35.6692 2.87004 35.6692 2.84004L35.4492 1.12004C35.4492 1.12004 35.4692 1.04004 35.5092 1.04004C35.5492 1.04004 35.5892 1.06004 35.5892 1.10004L35.8092 2.82004C35.8092 2.82004 35.7892 2.90004 35.7492 2.90004H35.7392Z" fill="white"/>
<path d="M34.4185 3.26989C34.4185 3.26989 34.3685 3.25989 34.3585 3.22989L33.4785 1.73989C33.4785 1.73989 33.4785 1.65989 33.5085 1.63989C33.5485 1.61989 33.5885 1.63989 33.6085 1.66989L34.4885 3.15989C34.4885 3.15989 34.4885 3.23989 34.4585 3.25989C34.4485 3.25989 34.4385 3.26989 34.4185 3.26989Z" fill="white"/>
<path d="M32.9993 4.00003C32.9993 4.00003 32.9693 4.00003 32.9493 3.98003L31.6193 2.87003C31.6193 2.87003 31.5793 2.80003 31.6193 2.77003C31.6493 2.74003 31.6893 2.73003 31.7193 2.77003L33.0493 3.88004C33.0493 3.88004 33.0893 3.95003 33.0493 3.98003C33.0393 4.00003 33.0093 4.01004 32.9893 4.01004L32.9993 4.00003Z" fill="white"/>
<path d="M32.01 8.45996C32.01 8.45996 31.97 8.45996 31.96 8.43996C31.93 8.40996 31.93 8.35996 31.96 8.33996L32.95 7.30996C32.95 7.30996 33.03 7.27996 33.05 7.30996C33.08 7.33996 33.08 7.38996 33.05 7.40996L32.06 8.43996C32.06 8.43996 32.03 8.45996 32.01 8.45996Z" fill="white"/>
<path d="M34.0296 9.29998H34.0096C33.9696 9.28998 33.9496 9.24998 33.9596 9.20998L34.3896 7.87998C34.3896 7.87998 34.4396 7.81998 34.4796 7.82998C34.5196 7.83998 34.5396 7.87998 34.5296 7.91998L34.0996 9.24998C34.0996 9.24998 34.0596 9.29998 34.0296 9.29998Z" fill="white"/>
<path d="M36.08 9.56004C36.08 9.56004 36.07 9.56004 36.06 9.56004C36.02 9.56004 35.99 9.51004 36 9.47004L36.3 8.10004C36.3 8.10004 36.35 8.03004 36.39 8.04004C36.43 8.04004 36.46 8.09004 36.45 8.13004L36.15 9.50004C36.15 9.50004 36.11 9.56004 36.08 9.56004Z" fill="white"/>
<path d="M38.0487 9.57005C38.0487 9.57005 37.9787 9.55005 37.9787 9.51005L37.7188 8.14005C37.7188 8.14005 37.7387 8.06005 37.7787 8.05005C37.8187 8.05005 37.8587 8.07005 37.8687 8.11005L38.1287 9.48005C38.1287 9.48005 38.1087 9.56005 38.0687 9.57005C38.0687 9.57005 38.0688 9.57005 38.0588 9.57005H38.0487Z" fill="white"/>
<path d="M40.4186 8.94003C40.4186 8.94003 40.3586 8.92003 40.3486 8.89003L39.8086 7.60003C39.8086 7.60003 39.8086 7.52003 39.8486 7.50003C39.8886 7.48003 39.9286 7.50003 39.9486 7.54003L40.4886 8.83003C40.4886 8.83003 40.4886 8.91003 40.4486 8.93003C40.4486 8.93003 40.4286 8.93003 40.4186 8.93003V8.94003Z" fill="white"/>
<path d="M42.25 8.05995C42.25 8.05995 42.21 8.05995 42.2 8.03995L41.07 6.90995C41.07 6.90995 41.04 6.82995 41.07 6.80995C41.1 6.78995 41.15 6.77995 41.17 6.80995L42.3 7.93995C42.3 7.93995 42.33 8.01995 42.3 8.03995C42.29 8.04995 42.27 8.05995 42.25 8.05995Z" fill="white"/>
<path d="M36.469 6.28008C36.159 6.11008 35.989 5.84008 36.019 5.49008C36.049 5.15008 36.159 4.82008 36.489 4.63008C36.549 4.59008 36.629 4.60008 36.709 4.58008C37.019 4.70008 37.449 4.52008 37.649 4.95008C37.929 5.55008 37.899 6.02008 37.099 6.32008C36.889 6.34008 36.689 6.20008 36.479 6.27008L36.469 6.28008Z" fill="#F96900"/>
<path d="M37.0387 6.28007C37.1787 6.19007 37.3187 6.09007 37.4688 6.00007C37.5887 5.92007 37.6287 5.79007 37.6887 5.67007C37.7587 5.53007 37.6987 5.42007 37.6187 5.30007C37.5087 5.15007 37.5888 4.92007 37.3988 4.80007C37.2288 4.69007 37.0387 4.68007 36.8587 4.66007C36.8087 4.66007 36.7688 4.60007 36.7188 4.57007C36.9787 4.57007 37.2387 4.57007 37.4987 4.57007C37.5487 4.60007 37.5787 4.64007 37.6287 4.67007C37.6287 4.67007 37.6988 4.75007 37.7388 4.78007C38.0088 5.04007 37.9787 5.37007 37.9487 5.70007C37.9187 5.74007 37.8787 5.78007 37.8487 5.82007C37.7687 5.87007 37.7887 5.98007 37.7287 6.04007C37.7287 6.04007 37.6487 6.12007 37.6187 6.15007C37.6187 6.15007 37.5487 6.22007 37.5087 6.25007C37.4787 6.26007 37.4388 6.27007 37.3988 6.27007C37.3588 6.30007 37.3187 6.33007 37.2787 6.37007C37.1987 6.37007 37.1287 6.37007 37.0487 6.37007C37.0087 6.35007 36.9987 6.32007 37.0087 6.30007C37.0187 6.28007 37.0387 6.26007 37.0487 6.26007L37.0387 6.28007Z" fill="#F75600"/>
<path d="M37.0387 6.27995C37.0387 6.27995 37.0387 6.34995 37.0387 6.38995C36.8387 6.41995 36.6388 6.38995 36.4688 6.27995C36.6587 6.05995 36.8487 6.19995 37.0387 6.27995Z" fill="#F75900"/>
<path d="M37.7188 6.05008C37.7188 5.95008 37.7387 5.87008 37.8387 5.83008C37.8387 5.92008 37.8088 6.01008 37.7188 6.05008Z" fill="#F75900"/>
<path d="M37.7291 4.78993C37.7291 4.78993 37.6591 4.71993 37.6191 4.67993C37.6591 4.71993 37.6891 4.74993 37.7291 4.78993Z" fill="#FE9000"/>
<path d="M37.6085 4.67007C37.6085 4.67007 37.5285 4.61007 37.4785 4.57007C37.5185 4.60007 37.5585 4.63007 37.6085 4.67007Z" fill="#FE9000"/>
<path d="M37.8398 5.82996C37.8398 5.82996 37.8998 5.74996 37.9398 5.70996C37.9398 5.76996 37.8998 5.80996 37.8398 5.82996Z" fill="#F96900"/>
<path d="M37.6094 6.16005C37.6094 6.16005 37.6894 6.08005 37.7194 6.05005C37.6794 6.09005 37.6394 6.13005 37.6094 6.16005Z" fill="#F75900"/>
<path d="M37.5 6.25991C37.5 6.25991 37.57 6.18991 37.61 6.15991C37.57 6.18991 37.54 6.22991 37.5 6.25991Z" fill="#F75900"/>
<path d="M37.2695 6.38003C37.2695 6.38003 37.3495 6.31003 37.3895 6.28003C37.3495 6.31003 37.3095 6.35003 37.2695 6.38003Z" fill="#F75900"/>
</svg>
